HIERARCHY
ROOT Pelvis
{
	OFFSET 0.000000 0.000000 0.000000
	CHANNELS 6 Xposition Yposition Zposition Xrotation Yrotation Zrotation
	JOINT LeftUpLeg_virtual
	{
		OFFSET 0.000000 0.000000 0.000000
		CHANNELS 3 Xrotation Yrotation Zrotation
		JOINT LeftUpLeg
		{
			OFFSET 18.735201 -5.666702 -4.541200
			CHANNELS 3 Xrotation Yrotation Zrotation
			JOINT LeftLeg
			{
				OFFSET -0.021200 -31.938179 0.493100
				CHANNELS 3 Xrotation Yrotation Zrotation
				JOINT LeftFoot
				{
					OFFSET 0.021200 -31.938179 -4.336299
					CHANNELS 3 Xrotation Yrotation Zrotation
					JOINT LeftToeBase
					{
						OFFSET 0.943001 -26.722000 15.023500
						CHANNELS 3 Xrotation Yrotation Zrotation
						End Site
						{
							OFFSET 0 0 0
						}
					}
				}
			}
		}
	}
	JOINT RightUpLeg_virtual
	{
		OFFSET 0.000000 0.000000 0.000000
		CHANNELS 3 Xrotation Yrotation Zrotation
		JOINT RightUpLeg
		{
			OFFSET -18.735201 -5.666702 -4.541200
			CHANNELS 3 Xrotation Yrotation Zrotation
			JOINT RightLeg
			{
				OFFSET 0.018946 -31.938133 0.493100
				CHANNELS 3 Xrotation Yrotation Zrotation
				JOINT RightFoot
				{
					OFFSET -0.018946 -31.938126 -4.336299
					CHANNELS 3 Xrotation Yrotation Zrotation
					JOINT RightToeBase
					{
						OFFSET -0.943001 -26.722004 15.023500
						CHANNELS 3 Xrotation Yrotation Zrotation
						End Site
						{
							OFFSET 0 0 0
						}
					}
				}
			}
		}
	}
	JOINT Hips_virtual
	{
		OFFSET 0.000000 0.000000 0.000000
		CHANNELS 3 Xrotation Yrotation Zrotation
		JOINT Hips
		{
			OFFSET -0.000000 -0.000000 -0.000000
			CHANNELS 3 Xrotation Yrotation Zrotation
			JOINT Spine
			{
				OFFSET 0.000000 10.199997 -0.299500
				CHANNELS 3 Xrotation Yrotation Zrotation
				JOINT Spine1
				{
					OFFSET 0.000000 11.900002 -1.516600
					CHANNELS 3 Xrotation Yrotation Zrotation
					JOINT Spine2
					{
						OFFSET 0.000000 13.600006 -2.842500
						CHANNELS 3 Xrotation Yrotation Zrotation
						JOINT Neck_virtual
						{
							OFFSET 0.000000 0.000000 0.000000
							CHANNELS 3 Xrotation Yrotation Zrotation
							JOINT Neck
							{
								OFFSET 0.000000 9.624100 -2.890100
								CHANNELS 3 Xrotation Yrotation Zrotation
								JOINT Head
								{
									OFFSET 0.000000 14.068802 -1.351900
									CHANNELS 3 Xrotation Yrotation Zrotation
									End Site
									{
										OFFSET 0 0 0
									}
								}
							}
						}
						JOINT LeftShoulder_virtual
						{
							OFFSET 0.000000 0.000000 0.000000
							CHANNELS 3 Xrotation Yrotation Zrotation
							JOINT LeftShoulder
							{
								OFFSET 15.263000 10.923401 -0.547700
								CHANNELS 3 Xrotation Yrotation Zrotation
								JOINT LeftArm
								{
									OFFSET 25.438599 -2.830597 -13.032500
									CHANNELS 3 Xrotation Yrotation Zrotation
									JOINT LeftForeArm
									{
										OFFSET 29.960503 0.000000 0.000000
										CHANNELS 3 Xrotation Yrotation Zrotation
										JOINT LeftHand
										{
											OFFSET 27.849251 0.000000 0.000000
											CHANNELS 3 Xrotation Yrotation Zrotation
											End Site
											{
												OFFSET 0 0 0
											}
										}
									}
								}
							}
						}
						JOINT RightShoulder_virtual
						{
							OFFSET 0.000000 0.000000 0.000000
							CHANNELS 3 Xrotation Yrotation Zrotation
							JOINT RightShoulder
							{
								OFFSET -15.263000 10.923401 -0.547700
								CHANNELS 3 Xrotation Yrotation Zrotation
								JOINT RightArm
								{
									OFFSET -25.438599 -2.830597 -13.032500
									CHANNELS 3 Xrotation Yrotation Zrotation
									JOINT RightForeArm
									{
										OFFSET -29.960503 0.000000 0.000000
										CHANNELS 3 Xrotation Yrotation Zrotation
										JOINT RightHand
										{
											OFFSET -27.849251 0.000000 0.000000
											CHANNELS 3 Xrotation Yrotation Zrotation
											End Site
											{
												OFFSET 0 0 0
											}
										}
									}
								}
							}
						}
					}
				}
			}
		}
	}
}
MOTION
Frames: 4
Frame Time: 0.03333333
-0.159423 93.558533 3.938099 0.000000 0.000000 0.000000 -7.178098 -4.154055 2.856510 -12.439732 10.999865 7.512227 16.149040 7.108092 1.443932 4.729786 0.319784 -7.597704 0.000000 0.000000 0.000000 -7.178098 -4.154055 2.856510 6.936531 -15.860567 -5.973804 22.412009 -8.954767 -3.397381 -21.561294 -6.562344 9.357460 0.000000 0.000000 0.000000 -7.178098 -4.154055 2.856510 0.000000 0.000000 0.000000 5.267978 2.023183 -1.947488 1.478230 0.730364 -0.788770 0.000000 0.000000 0.000000 1.440798 0.721971 -0.741220 0.955972 0.871913 0.354723 0.000000 0.000000 0.000000 1.440798 0.721971 -0.741220 -0.595444 -16.332002 -20.041821 11.139998 0.583281 -33.762393 -0.003443 -89.545870 -0.003269 0.000000 0.000000 0.000000 1.440798 0.721971 -0.741220 0.754162 18.436586 11.539477 10.691746 23.557106 38.362198 -179.999773 82.036118 179.999786 0.000000 0.000000 0.000000 
0.102816 93.323204 3.856670 0.000000 0.000000 0.000000 -7.012841 -4.467634 2.935455 -13.453973 10.916147 7.331766 17.949428 6.688815 1.471188 3.820663 1.156837 -7.548939 0.000000 0.000000 0.000000 -7.012841 -4.467634 2.935455 5.511795 -15.584313 -6.669309 24.390339 -8.743888 -3.414327 -22.284418 -6.674224 9.638338 0.000000 0.000000 0.000000 -7.012841 -4.467634 2.935455 0.000000 0.000001 0.000000 5.266761 1.889314 -2.008405 1.478231 0.545823 -0.771255 0.000000 0.000000 0.000000 1.440799 0.547799 -0.686543 0.933949 0.861584 0.258522 0.000000 0.000000 0.000000 1.440799 0.547799 -0.686543 -0.595444 -16.331998 -20.041821 11.673888 1.386651 -33.751107 -0.030792 -89.980215 -0.039874 0.000000 0.000000 0.000000 1.440799 0.547799 -0.686543 0.748015 18.465152 11.541425 10.484203 24.073579 38.792940 -179.999486 82.426217 179.999527 0.000000 0.000000 0.000000 
0.333917 93.109993 3.767689 0.000000 0.000000 0.000000 -6.846137 -4.771048 3.022295 -14.313072 10.863406 7.138860 19.409190 6.192902 1.501583 3.098638 2.049945 -7.493149 0.000000 0.000000 0.000000 -6.846137 -4.771048 3.022295 4.205124 -15.311978 -7.301938 26.140515 -8.537582 -3.422024 -22.904927 -6.766192 9.865665 0.000000 0.000000 0.000000 -6.846137 -4.771048 3.022295 0.000000 0.000000 0.000000 5.265856 1.769233 -2.072744 1.478231 0.373632 -0.754921 0.000000 0.000000 0.000000 1.440798 0.385385 -0.635565 0.913844 0.852183 0.165802 0.000000 0.000000 0.000000 1.440798 0.385385 -0.635565 -0.595444 -16.332002 -20.041821 12.260826 2.275645 -33.762639 179.995511 -89.544572 179.995401 0.000000 0.000000 0.000000 1.440798 0.385385 -0.635565 0.745095 18.495000 11.543408 10.252223 24.630863 39.267444 179.999568 82.846889 -179.999582 0.000000 0.000000 0.000000 
0.589324 92.898819 3.682735 0.000000 0.000000 0.000000 -6.679524 -5.085387 3.110124 -15.132643 10.831873 6.918235 20.804732 5.658458 1.529094 2.398524 2.993893 -7.399465 0.000000 0.000000 0.000000 -6.679524 -5.085387 3.110124 2.938818 -15.032591 -7.945406 27.796655 -8.304976 -3.422661 -23.467278 -6.853194 10.092436 0.000000 0.000000 0.000000 -6.679524 -5.085387 3.110124 0.000000 0.000000 0.000000 5.265061 1.636092 -2.140710 1.476995 0.189087 -0.737423 0.000000 0.000000 0.000000 1.440799 0.211210 -0.580904 0.892844 0.841852 0.069188 0.000000 0.000000 0.000000 1.440799 0.211210 -0.580904 -0.595444 -16.331997 -20.041819 12.881843 3.223698 -33.784971 -179.999800 -89.027629 -179.999991 0.000000 0.000000 0.000000 1.440799 0.211210 -0.580904 0.747688 18.526427 11.539869 9.993123 25.212714 39.777331 -179.999950 83.290537 179.999991 0.000000 0.000000 0.000000 
